<svg version="1.1" xmlns="http://www.w3.org/2000/svg" xmlns:xlink="http://www.w3.org/1999/xlink" x="0px" y="0px" width="16px"
	 height="16px" viewBox="0 0 16 16" enable-background="new 0 0 16 16" xml:space="preserve">
	<path fill="#4D4D4D" d="M11.8,1.6l0.3,0.3L14.1,4l0.3,0.3L14.8,4l0.7-0.7L15.8,3c0.2-0.2,0.2-0.5,0-0.7l-2.1-2.1
		c-0.2-0.2-0.5-0.2-0.7,0l-0.3,0.3l-0.7,0.7L11.8,1.6z"/>
	<rect x="2" y="6.1" transform="matrix(0.7071 -0.7071 0.7071 0.7071 -3.3 8.051)" fill="#5398D1" width="12.1" height="3.8"/>
	<path fill="#4D4D4D" d="M1.6,11.7l-1.6,4C0,16,0,16,0.2,16l4.1-1.6L1.6,11.7z"/>
</svg>
